<?xml version="1.0" encoding="UTF-8"?>
<svg id="Layer_1" xmlns="http://www.w3.org/2000/svg" version="1.1" viewBox="0 0 256 256">
  <!-- Generator: Adobe Illustrator 29.6.1, SVG Export Plug-In . SVG Version: 2.1.1 Build 9)  -->
  <defs>
    <style>
      .st0 {
        fill: #f15e00;
      }

      .st1 {
        fill: #b6b5b5;
      }

      .st2 {
        fill: #e6e5e5;
      }
    </style>
  </defs>
  <path class="st0" d="M253,65.5v125h-20.8v20.8h-20.8v20.8h-20.8v20.8h-125v-20.8h-20.8v-20.8h-20.8v-20.8H3v-125h20.8v-20.8h20.8v-20.8h20.8V3h125v20.8h20.8v20.8h20.8v20.8h20.8Z"/>
  <path class="st2" d="M180.1,55.1v145.8h-20.8v-20.8h-41.7v-20.8h-20.8v20.8h-20.8v-41.7h-31.2v-20.8h31.2v-20.8h20.8v-20.8h41.7v-20.8h41.7Z"/>
  <path class="st1" d="M96.8,117.6v20.8h-20.8v41.7h20.8v-20.8h20.8v-41.7h-20.8Z"/>
  <rect class="st1" x="117.6" y="96.8" width="20.8" height="20.8"/>
</svg>